<svg width="188" height="280" viewBox="0 0 188 280" fill="none" xmlns="http://www.w3.org/2000/svg">
<path d="M135.911 124.603C73.179 182.239 205.448 271.56 116.066 260.378C45.4843 251.549 50.0752 227.766 57.1919 144.656C110.338 108.474 66.6488 35.3308 111.619 12.5377C173.757 -27.3238 125.134 55.1542 135.911 124.603Z" fill="#B671D2"/>
<path d="M25.4929 153.998C89.9638 207.558 -37.0057 258.207 50.887 262.134C120.292 265.235 114.742 246.136 104.171 180.654C50.09 145.09 90.1724 94.5037 44.7435 70.4802C-18.3844 30.7942 33.1945 101.638 25.4929 153.998Z" fill="#5DA659"/>
<path d="M100.781 41.7129C102.891 34.4287 102.523 25.411 98.5341 19.6016C97.089 15.7352 94.0505 11.9559 90.2213 9.68622C86.392 7.41655 82.2112 7.86133 78.704 8.04635C75.2321 8.2295 71.7694 10.6227 68.5028 12.1626C65.2363 13.7025 62.2548 19.2056 60.9875 23.4854C58.8465 30.7153 62.1681 39.0719 60.8022 46.6329C59.5486 53.5716 54.5992 58.2634 49.5268 60.62C44.4544 62.9767 38.9943 63.6298 33.9179 65.9716C28.8415 68.3134 23.88 72.9704 22.5918 79.8976C21.6604 84.9069 22.8498 90.3362 25.0747 94.6046C27.2996 98.8731 30.4688 102.123 33.7714 104.903C38.6983 109.05 44.3237 112.39 50.1239 111.94C56.2354 111.466 61.8195 106.734 65.6739 100.461C69.5283 94.1882 71.8374 86.4845 73.5321 78.6946C74.6072 73.7527 75.5661 68.464 78.2956 64.825C80.3012 62.1511 83.0311 60.7007 85.6808 59.3187L88.6813 57.7539C91.4018 56.3541 93.873 54.2283 95.9429 51.5071C98.0128 48.786 99.6376 45.527 100.717 41.9309C100.739 41.8584 100.76 41.7858 100.781 41.7129Z" fill="#523B36"/>
<path d="M73.668 266.07H67.6506L64.7874 233.583H73.6695L73.668 266.07Z" fill="#FFB8B8"/>
<path d="M63.3518 263.663H74.9577V273.89H56.0444C56.0444 272.547 56.2334 271.217 56.6007 269.976C56.9679 268.736 57.5062 267.608 58.1847 266.658C58.8633 265.709 59.6688 264.955 60.5554 264.441C61.442 263.927 62.3922 263.663 63.3518 263.663Z" fill="#2F2E41"/>
<path d="M123.736 266.07H117.718L114.855 233.583H123.737L123.736 266.07Z" fill="#FFB8B8"/>
<path d="M113.42 263.663H125.026V273.89H106.112C106.112 272.547 106.301 271.217 106.669 269.976C107.036 268.736 107.574 267.608 108.253 266.658C108.931 265.709 109.737 264.955 110.623 264.441C111.51 263.927 112.46 263.663 113.42 263.663Z" fill="#2F2E41"/>
<path d="M85.236 240.249C85.152 240.249 85.0682 240.242 84.9847 240.23L60.5018 236.558C60.1766 236.509 59.8626 236.364 59.5807 236.132C59.2987 235.901 59.0553 235.587 58.8666 235.213C58.6779 234.84 58.5482 234.414 58.4863 233.964C58.4243 233.515 58.4315 233.052 58.5073 232.607L80.1849 117.21C80.2865 116.623 80.5032 116.087 80.8107 115.663C81.1182 115.239 81.5042 114.944 81.9252 114.811L102.035 106.965C102.438 106.841 102.858 106.87 103.25 107.049C103.643 107.228 103.994 107.551 104.268 107.983C117.197 128.395 126.941 173.642 134.322 230.673C134.377 231.103 134.37 231.545 134.3 231.971C134.229 232.397 134.098 232.799 133.913 233.152C133.729 233.505 133.494 233.801 133.225 234.023C132.956 234.246 132.657 234.389 132.347 234.444L112.287 238.029C111.718 238.132 111.142 237.934 110.672 237.473C110.202 237.012 109.873 236.321 109.749 235.537L99.9887 174.635C99.899 174.075 99.6743 173.574 99.3525 173.218C99.0306 172.861 98.631 172.671 98.2206 172.677C97.8102 172.684 97.4138 172.888 97.0979 173.254C96.782 173.621 96.5657 174.129 96.4852 174.692L87.4876 237.657C87.3857 238.388 87.1053 239.046 86.6944 239.519C86.2836 239.992 85.7679 240.25 85.236 240.249Z" fill="#2D2977"/>
<path d="M81.1753 117.535C80.6685 117.534 80.176 117.299 79.7746 116.866C79.3732 116.433 79.0854 115.826 78.9559 115.14L71.7031 77.0049C71.1796 74.2647 71.3964 71.3505 72.312 68.8199C73.2276 66.2893 74.7777 64.3202 76.6657 63.2891C82.504 60.0995 88.0664 58.9162 93.1981 59.7708C97.7592 60.5316 103.386 98.3245 103.013 99.1308L104.813 106.688C104.915 107.116 104.952 107.57 104.921 108.02C104.889 108.469 104.791 108.905 104.631 109.298C104.472 109.69 104.256 110.032 103.996 110.3C103.736 110.568 103.439 110.757 103.124 110.854L81.6756 117.458C81.5113 117.509 81.3436 117.535 81.1753 117.535Z" fill="black"/>
<path d="M87.6754 156.534C87.7787 155.784 87.7631 155.01 87.6299 154.269C87.4966 153.528 87.2488 152.837 86.904 152.244C86.5592 151.651 86.1257 151.171 85.6341 150.839C85.1425 150.506 84.6047 150.328 84.0586 150.317L79.88 132.682L75.6091 140.264L80.232 155.848C80.2802 157.134 80.6635 158.349 81.3093 159.265C81.9551 160.181 82.8186 160.734 83.7361 160.818C84.6536 160.903 85.5613 160.514 86.2874 159.724C87.0134 158.934 87.5073 157.799 87.6754 156.534Z" fill="#FFB8B8"/>
<path d="M141.399 114.151C141.149 113.472 140.795 112.877 140.363 112.41C139.931 111.942 139.431 111.613 138.898 111.445C138.365 111.277 137.813 111.275 137.279 111.438C136.746 111.602 136.244 111.927 135.81 112.391L124.739 102.14L124.729 111.795L135.244 120.049C135.849 121.018 136.687 121.643 137.6 121.804C138.512 121.966 139.435 121.653 140.193 120.926C140.952 120.199 141.494 119.108 141.716 117.859C141.938 116.611 141.825 115.291 141.399 114.151Z" fill="#FFB8B8"/>
<path d="M78.9146 148.386C78.4303 148.386 77.9584 148.173 77.5659 147.776C77.1734 147.379 76.8803 146.819 76.7283 146.176L66.9323 117.172C66.5305 115.473 66.3259 113.694 66.3262 111.904L69.2713 74.2067C69.2712 72.0961 69.8467 70.065 70.8802 68.528C71.9138 66.9911 73.3275 66.0642 74.8327 65.9366C76.338 65.8089 77.8213 66.4902 78.9798 67.8413C80.1384 69.1924 80.8848 71.1115 81.0667 73.2067L76.5607 116.235L83.7513 142.643C83.865 143.346 83.807 144.082 83.5864 144.732C83.3658 145.383 82.9954 145.912 82.5347 146.233L79.9439 148.046C79.6243 148.27 79.2719 148.386 78.9146 148.386Z" fill="black"/>
<path d="M131.233 117.959C130.872 117.959 130.516 117.84 130.195 117.612L110.713 103.84C109.571 103.033 108.529 101.976 107.626 100.707L88.6119 74.0083C87.5473 72.5134 86.9306 70.5063 86.8874 68.3966C86.8443 66.287 87.3781 64.2338 88.3799 62.6563C89.3817 61.0787 90.7758 60.0958 92.2778 59.9081C93.7798 59.7204 95.2764 60.3421 96.462 61.6463L117.06 93.6628L133.387 108.172C133.822 108.557 134.152 109.136 134.324 109.815C134.496 110.494 134.501 111.234 134.336 111.917L133.416 115.761C133.262 116.401 132.969 116.958 132.577 117.352C132.186 117.746 131.715 117.959 131.233 117.959Z" fill="black"/>
<path d="M187.509 274.85H0.490862C0.360677 274.85 0.235824 274.777 0.14377 274.649C0.0517153 274.52 0 274.345 0 274.163C0 273.981 0.0517153 273.806 0.14377 273.677C0.235824 273.548 0.360677 273.476 0.490862 273.476H187.509C187.639 273.476 187.764 273.548 187.856 273.677C187.948 273.806 188 273.981 188 274.163C188 274.345 187.948 274.52 187.856 274.649C187.764 274.777 187.639 274.85 187.509 274.85Z" fill="#3F3D56"/>
<rect width="8.07434" height="10.27" transform="matrix(0.974748 -0.223306 0.138218 0.990402 78.2273 55.533)" fill="black"/>
<g filter="url(#filter0_d_1190_87)">
<path d="M80.7231 15.5186C80.4924 14.0287 94.2025 17.823 95.0872 32.058C95.972 46.2934 90.8435 51.9119 84.0092 55.898C76.7824 56.7561 70.0255 52.4116 67.0691 39.204C64.9531 29.7498 82.309 25.7263 80.7231 15.5186Z" fill="#FFB8B8"/>
<path d="M80.7231 15.5186C80.4924 14.0287 94.2025 17.823 95.0872 32.058C95.972 46.2934 90.8435 51.9119 84.0092 55.898C76.7824 56.7561 70.0255 52.4116 67.0691 39.204C64.9531 29.7498 82.309 25.7263 80.7231 15.5186Z" stroke="#523B36"/>
<path d="M87.9974 30.5854C88.8598 30.5042 89.5851 30.7007 90.0869 31.0214C90.5481 31.3161 90.7905 31.6951 90.8282 32.0342C90.5093 32.3523 90.1819 32.6211 89.7482 32.8324C89.2716 33.0647 88.6524 33.2379 87.7619 33.3218C86.0383 33.4842 85.0578 32.9591 84.4038 32.7162C84.4601 32.6401 84.5335 32.5506 84.6251 32.4526C84.8449 32.2178 85.1509 31.9436 85.5116 31.6776C86.2386 31.1415 87.1525 30.6651 87.9974 30.5854Z" fill="#D9D9D9" fill-opacity="0.73" stroke="#3F3634" stroke-width="0.5"/>
<path d="M87.5534 30.8034C88.3459 30.6013 89.0292 31.0276 89.1311 31.6821C89.2335 32.3411 88.7276 33.0891 87.9398 33.2901C87.1518 33.4911 86.461 33.0483 86.3586 32.3892C86.2571 31.7346 86.7609 31.0055 87.5534 30.8034Z" fill="#523B36" stroke="#2B2220" stroke-width="0.5"/>
<ellipse cx="0.70762" cy="0.70974" rx="0.70762" ry="0.70974" transform="matrix(0.96898 -0.247137 0.153528 0.988144 87.051 31.5859)" fill="black"/>
<rect width="0.70762" height="0.70974" transform="matrix(0.96898 -0.247137 0.153528 0.988144 87.9353 31.5427)" fill="#D9D9D9" fill-opacity="0.67"/>
<path d="M74.0907 35.237C73.2494 35.3163 72.8285 35.2495 72.4901 35.1273C72.3145 35.064 72.1572 34.9841 71.9621 34.8888C71.8349 34.8267 71.6939 34.7633 71.5318 34.6956C72.054 33.9405 72.9732 32.9068 74.3761 32.5414C75.2602 32.3111 75.9021 32.4763 76.457 32.7801C76.739 32.9344 76.999 33.1244 77.2602 33.3235C77.4172 33.4431 77.5772 33.5666 77.7398 33.6844C76.6498 34.3772 75.5838 35.0962 74.0907 35.237Z" fill="#D9D9D9" fill-opacity="0.73" stroke="#3F3634" stroke-width="0.5"/>
<path d="M74.4516 32.5043C75.244 32.3022 75.9274 32.7285 76.0293 33.383C76.1317 34.042 75.6258 34.7901 74.838 34.9911C74.05 35.192 73.3592 34.7492 73.2568 34.0901C73.1553 33.4355 73.6591 32.7064 74.4516 32.5043Z" fill="#523B36" stroke="#2B2220" stroke-width="0.5"/>
<ellipse cx="0.70762" cy="0.70974" rx="0.70762" ry="0.70974" transform="matrix(0.96898 -0.247137 0.153528 0.988144 73.9497 33.2866)" fill="black"/>
<rect width="0.70762" height="0.70974" transform="matrix(0.96898 -0.247137 0.153528 0.988144 74.978 33.0247)" fill="#D9D9D9" fill-opacity="0.67"/>
<path d="M85.3089 28.0729C85.9949 27.7841 87.0525 27.5104 88.4303 27.2808C89.4244 27.1153 90.2741 27.2885 90.9466 27.5831C90.2242 27.4116 89.3778 27.3272 88.5141 27.5474C88.1017 27.6526 87.6152 27.8431 87.1487 28.0291C86.6677 28.2208 86.1964 28.4122 85.7662 28.5462C85.3228 28.6843 84.9982 28.7358 84.7944 28.7058C84.7034 28.6923 84.6624 28.666 84.6426 28.6472C84.6271 28.6323 84.601 28.5998 84.5843 28.5186C84.5931 28.5063 84.6082 28.4851 84.6386 28.4566C84.749 28.3531 84.9616 28.2192 85.3089 28.0729Z" fill="#453333" fill-opacity="0.99" stroke="#453333"/>
<path d="M73.0465 29.2916C74.1717 29.0081 75.4766 28.8566 76.4446 28.9506C76.9397 28.9987 77.2905 29.1066 77.4898 29.2448C77.5837 29.3099 77.6282 29.3709 77.6487 29.419C77.6673 29.4627 77.679 29.524 77.6588 29.6231C77.6321 29.7544 77.5961 29.802 77.5835 29.8159C77.5729 29.8275 77.547 29.8503 77.4718 29.8694C77.2852 29.9169 76.9877 29.896 76.5164 29.8181C75.654 29.6757 74.3673 29.3661 73.0749 29.6957C72.1296 29.9369 71.3098 30.4002 70.6613 30.839C71.2369 30.2623 72.0358 29.6815 73.0465 29.2916Z" fill="#453333" stroke="#453333"/>
<path d="M80.0499 40.7932L79.7696 40.4947L79.4254 40.2865L79.0395 40.3109L78.8256 40.4395L78.6977 40.6201L78.8058 40.8145L79.053 40.8995L79.2891 40.9133L79.6001 40.9079L80.0499 40.7932ZM80.0499 40.7932L80.3832 40.9302L80.7053 40.996L81.0273 41.0619L81.3384 41.0565L81.7244 41.0321L82.0994 40.9364L82.3993 40.8599L82.7633 40.6931L83.1912 40.436L83.608 40.1077M83.608 40.1077L83.8859 39.8888L84.1637 39.67L84.3137 39.6317L84.4748 39.6646L84.4969 39.807L84.294 40.0067L84.0801 40.1353L83.8551 40.1926L83.608 40.1077Z" stroke="#453333" stroke-width="0.5"/>
<path d="M80.0908 45.366C80.6866 45.2766 81.2324 45.2895 81.6506 45.4557L81.7307 45.4877L81.8004 45.429C82.0876 45.1851 82.55 45.0334 83.1082 44.9602C83.6615 44.8876 84.2866 44.8943 84.8763 44.9473C85.4655 45.0002 86.0143 45.0988 86.4154 45.2065C86.6167 45.2606 86.7765 45.316 86.8839 45.3668C86.9052 45.3769 86.9222 45.3889 86.9378 45.3977C86.9347 45.3994 86.9321 45.4031 86.9287 45.405C86.8417 45.4519 86.7058 45.5047 86.5255 45.5625C86.1667 45.6774 85.6614 45.8018 85.0899 45.9278C84.5195 46.0536 83.8873 46.1803 83.2765 46.3023C82.6723 46.4229 82.0879 46.5387 81.6074 46.6429C80.299 46.6582 78.9422 46.7951 77.9165 46.8805C77.3988 46.9235 76.969 46.9533 76.6682 46.949C76.5256 46.947 76.4215 46.9352 76.3529 46.9193C76.3677 46.9045 76.384 46.8857 76.4057 46.867C76.5 46.7859 76.6441 46.6847 76.8295 46.5727C77.1987 46.3495 77.7163 46.0924 78.2919 45.8682C78.8678 45.644 79.4974 45.4551 80.0908 45.366Z" fill="#EDB0AC" stroke="#A96976" stroke-width="0.3"/>
<path d="M86.9456 45.9644C86.8901 46.0771 86.8037 46.2129 86.6871 46.3645C86.4536 46.6679 86.1047 47.0271 85.6606 47.3829C84.7723 48.0944 83.5095 48.7859 82.034 48.9928C80.557 49.1997 79.224 48.9159 78.2188 48.5242C77.7163 48.3284 77.2965 48.1055 76.9834 47.9052C76.6936 47.7196 76.5034 47.5566 76.4188 47.4558C76.4201 47.451 76.4197 47.4462 76.4217 47.4425C76.4271 47.4326 76.439 47.4189 76.4622 47.4032C76.5112 47.37 76.596 47.3397 76.7243 47.3149C76.9793 47.2656 77.3587 47.2468 77.843 47.2334C78.8061 47.2068 80.1578 47.2004 81.6616 46.9896C82.426 46.8824 83.4961 46.6363 84.5206 46.3935C85.4773 46.1668 86.3932 45.9446 86.9957 45.8354C86.9842 45.8714 86.9698 45.9151 86.9456 45.9644Z" fill="#EDB0AC" stroke="#A96976" stroke-width="0.2"/>
<path d="M88.2742 29.0282C90.1869 28.5035 91.5868 28.2731 92.5966 28.2776C93.6051 28.2821 94.1665 28.52 94.4827 28.8673C94.7994 29.2152 94.9416 29.7511 94.9231 30.5424C94.9044 31.3366 94.7262 32.3163 94.4697 33.4789C94.0195 35.5198 92.0904 38.094 88.0953 38.4192C86.0777 38.5834 84.7844 38.104 83.9376 37.3415C83.0826 36.5716 82.6344 35.4693 82.4043 34.2887C82.2947 33.7264 82.3012 33.2226 82.4258 32.7669C82.549 32.3166 82.7959 31.8804 83.2139 31.4539C84.0703 30.5801 85.6434 29.7501 88.2742 29.0282Z" fill="#2F2D2D" fill-opacity="0.03" stroke="#2B2727"/>
<rect x="0.442721" y="0.370646" width="1.73179" height="0.869999" transform="matrix(0.978783 -0.158247 0.0389667 1.01031 79.8927 32.752)" fill="#2B2727" stroke="#2B2727" stroke-width="0.869999"/>
<path d="M73.5858 31.5087C71.658 31.7133 70.27 32.0134 69.294 32.3966C68.319 32.7793 67.8109 33.2222 67.5564 33.6803C67.3014 34.1393 67.243 34.7167 67.378 35.4834C67.5135 36.2529 67.8311 37.1441 68.2512 38.1844C68.9888 40.011 71.236 41.8031 75.1489 40.6222C77.125 40.0257 78.3056 39.0724 79.0121 38.0093C79.7255 36.9357 79.9954 35.689 80.0434 34.4483C80.0663 33.8576 79.9856 33.3682 79.7977 32.9694C79.6118 32.5752 79.3081 32.2413 78.8406 31.9812C77.8828 31.4484 76.2378 31.2272 73.5858 31.5087Z" fill="#504848" fill-opacity="0.03" stroke="#2B2727"/>
<path d="M94.4382 29.113L95.0865 28.9351C95.5833 28.7987 96.0598 29.0974 96.1509 29.6023C96.242 30.1073 95.9131 30.6272 95.4163 30.7636L94.7681 30.9415L94.4382 29.113Z" fill="#2B2727"/>
<path d="M67.4111 33.9751L66.7413 34.0961C66.2403 34.1866 65.8602 34.6783 65.8922 35.1944C65.9243 35.7104 66.3563 36.0554 66.8573 35.9649L67.5271 35.8439L67.4111 33.9751Z" fill="#2B2727"/>
</g>
<defs>
<filter id="filter0_d_1190_87" x="52.8342" y="6.2168" width="56.4817" height="66.7852" filterUnits="userSpaceOnUse" color-interpolation-filters="sRGB">
<feFlood flood-opacity="0" result="BackgroundImageFix"/>
<feColorMatrix in="SourceAlpha" type="matrix" values="0 0 0 0 0 0 0 0 0 0 0 0 0 0 0 0 0 0 127 0" result="hardAlpha"/>
<feOffset dy="4"/>
<feGaussianBlur stdDeviation="6.5"/>
<feComposite in2="hardAlpha" operator="out"/>
<feColorMatrix type="matrix" values="0 0 0 0 0 0 0 0 0 0 0 0 0 0 0 0 0 0 0.25 0"/>
<feBlend mode="normal" in2="BackgroundImageFix" result="effect1_dropShadow_1190_87"/>
<feBlend mode="normal" in="SourceGraphic" in2="effect1_dropShadow_1190_87" result="shape"/>
</filter>
</defs>
</svg>
