<svg width="289" height="283" viewBox="0 0 289 283" fill="none" xmlns="http://www.w3.org/2000/svg">
<g filter="url(#filter0_d_1157_58)">
<ellipse cx="142.796" cy="135.964" rx="127.778" ry="124.991" fill="#181833"/>
<path d="M160.524 30.3994C184.99 40.0377 202.019 46.3175 220.04 135.457C238.061 224.597 236.897 225.453 119.872 216.312C26.019 208.981 44.5147 234.467 54.2837 114.801C64.9325 46.3396 114.939 12.4418 160.524 30.3994Z" fill="#523B36"/>
<path d="M131.311 151.775L162.499 162.724L195.158 174.741L213.606 181.01L228.832 185.69L248.457 192.466L240.337 207.85L231.201 218.652L221.05 228.472L213.606 235.345L203.793 242.874L190.597 248.766L179.564 253.786L162.499 258.326L144.58 260.549L125.294 260.549L111.303 256.456L97.18 251.649L83.6457 246.041L72.465 238.059L65.0652 231.418L57.2829 224.217L47.8087 214.07L41.3798 203.268L53.9287 196.905L72.465 185.689L94.5321 173.405L131.311 151.775Z" fill="#121212"/>
<path d="M130.732 172.279C151.834 172.278 176.525 136.474 171.469 190.182C171.469 225.988 154.362 242.836 133.26 242.836C112.158 242.836 93.9277 231.253 95.8943 199.66C97.861 168.066 78.1949 154.376 130.732 172.279Z" fill="#D7BFA8"/>
<path d="M130.732 172.279C151.834 172.278 176.525 136.474 171.469 190.182C171.469 225.988 154.362 242.836 133.26 242.836C112.158 242.836 93.9277 231.253 95.8943 199.66C97.861 168.066 78.1949 154.376 130.732 172.279Z" stroke="black"/>
<path d="M145.167 51.6379C145.41 51.5697 145.843 51.5711 146.491 51.7092C147.767 51.981 149.633 52.7281 151.897 53.9661C156.413 56.4358 162.405 60.7993 168.248 66.9651C179.931 79.2936 190.977 98.7833 188.49 124.698C185.993 150.729 179.102 167.554 169.386 178.875C159.695 190.168 147.143 196.042 133.165 200.075C119.437 198.295 106.916 191.995 97.3909 179.918C87.8358 167.803 81.2665 149.839 79.5647 124.711C78.967 115.884 82.656 109.351 88.594 103.89C94.5556 98.4075 102.746 94.0415 111.091 89.5667C119.407 85.1074 127.873 80.5425 134.251 74.679C140.649 68.7977 144.977 61.5825 144.977 51.8333C144.977 51.7555 144.997 51.7307 145.004 51.7219C145.016 51.7079 145.055 51.6696 145.167 51.6379Z" fill="#D7BFA8" stroke="#523B36"/>
<path d="M163.169 112.484C166.561 112.997 169.269 114.414 171.044 116.098C172.751 117.719 173.534 119.523 173.366 120.983C171.884 121.912 170.387 122.647 168.473 123.042C166.467 123.456 163.97 123.507 160.524 122.985C153.378 121.902 149.817 118.686 147.57 117.363C147.638 117.288 147.72 117.205 147.818 117.113C148.113 116.839 148.516 116.525 149.014 116.193C150.01 115.528 151.355 114.806 152.897 114.168C155.994 112.887 159.813 111.975 163.169 112.484Z" fill="#D9D9D9" fill-opacity="0.73" stroke="#3F3634"/>
<path d="M161.29 112.855C164.611 112.855 167.179 115.18 167.179 117.907C167.179 120.642 164.601 123.039 161.29 123.039C157.979 123.038 155.401 120.642 155.401 117.907C155.401 115.18 157.97 112.855 161.29 112.855Z" fill="#523B36" stroke="#2B2220"/>
<ellipse cx="161.626" cy="118.275" rx="2.69007" ry="2.63138" fill="black"/>
<rect x="162.299" y="116.302" width="2.69007" height="2.63138" fill="#D9D9D9" fill-opacity="0.67"/>
<path d="M107.809 117.312C104.546 116.817 102.934 116.173 101.66 115.378C101.012 114.973 100.444 114.525 99.7698 114.006C99.22 113.583 98.6086 113.126 97.8544 112.63C100.245 110.314 104.571 107.029 110.549 107C114.153 106.982 116.581 108.22 118.561 109.881C119.558 110.718 120.443 111.663 121.313 112.623C121.989 113.368 122.66 114.127 123.359 114.833C118.644 116.375 113.929 118.239 107.809 117.312Z" fill="#D9D9D9" fill-opacity="0.73" stroke="#3F3634"/>
<path d="M110.851 106.934C114.172 106.934 116.74 109.259 116.74 111.986C116.74 114.721 114.162 117.118 110.851 117.118C107.54 117.118 104.962 114.721 104.962 111.986C104.962 109.26 107.531 106.934 110.851 106.934Z" fill="#523B36" stroke="#2B2220"/>
<ellipse cx="111.188" cy="112.355" rx="2.69007" ry="2.63138" fill="black"/>
<rect x="112.532" y="109.723" width="2.69007" height="2.63138" fill="#D9D9D9" fill-opacity="0.67"/>
<path d="M97.7372 109.526L100.679 107.39L103.622 106.054L106.858 104.986L110.389 104.719L113.92 104.986L117.156 105.787L120.098 107.39L122.452 109.526" stroke="#3F3634"/>
<path d="M150.862 112.833L153.635 111.317L156.227 110.357L159.717 109.61L163.569 109.911L166.867 110.781L170.216 112.451L172.7 114.44L174.727 117.27" stroke="#3F3634"/>
<path d="M154.207 100.026C157.129 99.5904 161.409 99.586 166.783 100.029C172.04 100.463 176.021 102.768 178.69 105.186C180.025 106.396 181.026 107.631 181.691 108.663C182.023 109.179 182.268 109.639 182.427 110.015C182.483 110.148 182.524 110.266 182.557 110.368C182.434 110.301 182.283 110.213 182.104 110.101C181.693 109.844 181.189 109.501 180.59 109.098C179.995 108.698 179.314 108.245 178.563 107.777C175.569 105.912 171.387 103.769 166.824 103.769C165.317 103.769 163.467 103.997 161.577 104.241C159.671 104.487 157.715 104.752 155.943 104.844C154.158 104.936 152.638 104.845 151.582 104.428C151.063 104.224 150.68 103.951 150.426 103.605C150.175 103.263 150.021 102.811 150.021 102.196C150.021 101.778 150.263 101.361 150.957 100.966C151.658 100.566 152.741 100.245 154.207 100.026Z" fill="#453333" fill-opacity="0.99" stroke="#453333"/>
<path d="M107.335 93.1194C111.877 93.1224 117.104 93.7899 120.921 95.095C122.841 95.7514 124.348 96.5507 125.244 97.4622C125.687 97.9127 125.966 98.3756 126.086 98.8479C126.205 99.3149 126.178 99.827 125.951 100.399C125.704 101.024 125.396 101.41 125.058 101.643C124.721 101.875 124.308 101.988 123.794 101.988C122.731 101.988 121.36 101.511 119.667 100.813C116.358 99.4475 112.014 97.3127 107.304 97.3127C102.613 97.3128 98.4629 98.8731 95.5237 100.117C94.0282 100.751 92.8997 101.277 92.1213 101.517C91.8462 101.601 91.668 101.629 91.5618 101.635C92.2116 100.376 93.8866 98.5539 96.4895 96.8928C99.2059 95.1594 102.885 93.6324 107.335 93.1194Z" fill="#453333" stroke="#453333"/>
<path d="M127.117 142.429L126.235 141.094L125.058 140.026L123.587 139.758L122.705 140.025L122.116 140.56L122.41 141.361L123.293 141.895L124.176 142.162L125.352 142.429L127.117 142.429ZM127.117 142.429L128.295 143.23L129.472 143.764L130.648 144.298L131.825 144.565L133.296 144.832L134.768 144.832L135.944 144.832L137.416 144.565L139.181 144.031L140.947 143.23M140.947 143.23L142.123 142.696L143.3 142.162L143.889 142.162L144.477 142.429L144.477 142.963L143.595 143.497L142.712 143.764L141.829 143.764L140.947 143.23Z" stroke="#453333"/>
<path d="M124.478 159.505C126.757 159.454 128.823 159.774 130.369 160.628L130.623 160.768L130.871 160.617C132.044 159.9 133.821 159.795 135.934 160.149C138.026 160.499 140.347 161.283 142.52 162.219C144.691 163.154 146.695 164.232 148.149 165.16C148.877 165.624 149.455 166.045 149.846 166.383C149.968 166.489 150.065 166.584 150.142 166.665C149.805 166.708 149.286 166.708 148.6 166.665C147.226 166.58 145.31 166.338 143.135 166.062C138.836 165.517 133.539 164.84 129.731 165.043C124.717 164.343 119.564 164.248 115.692 164.153C113.74 164.105 112.131 164.057 111.011 163.935C110.446 163.874 110.044 163.798 109.795 163.709C109.79 163.708 109.786 163.705 109.781 163.703C109.858 163.635 109.961 163.553 110.096 163.46C110.483 163.196 111.06 162.88 111.795 162.543C113.26 161.87 115.291 161.135 117.532 160.555C119.774 159.976 122.207 159.557 124.478 159.505Z" fill="#EDB0AC" stroke="#A96976"/>
<path d="M110.844 165.076C111.779 165.003 113.166 165.098 114.962 165.275C118.526 165.624 123.578 166.28 129.397 166.417C132.31 166.486 136.476 166.904 140.531 167.323C144.185 167.7 147.755 168.076 150.182 168.186C150.156 168.219 150.132 168.258 150.101 168.294C149.859 168.58 149.486 168.906 148.98 169.256C147.971 169.954 146.49 170.706 144.635 171.389C140.927 172.755 135.784 173.829 130.057 173.694C124.356 173.56 119.505 171.858 115.948 169.962C114.17 169.015 112.719 168.022 111.652 167.157C110.709 166.394 110.095 165.755 109.806 165.353C109.827 165.331 109.858 165.306 109.908 165.279C110.075 165.189 110.372 165.113 110.844 165.076Z" fill="#EDB0AC" stroke="#A96976"/>
<g filter="url(#filter1_d_1157_58)">
<path d="M144.141 11.5C215.239 11.5 272.782 67.8657 272.782 137.28C272.782 206.695 215.239 263.06 144.141 263.06C73.0422 263.059 15.5002 206.695 15.5 137.28C15.5 67.8658 73.0421 11.5001 144.141 11.5Z" stroke="#F0F2E2" stroke-width="5" shape-rendering="crispEdges"/>
</g>
<path d="M165.135 106.642C172.68 106.487 178.181 106.929 182.093 107.895C186.005 108.861 188.212 110.321 189.35 112.113C190.488 113.904 190.677 116.211 190.115 119.155C189.551 122.106 188.259 125.561 186.597 129.537C183.519 136.901 174.286 144.702 158.619 142.163C150.748 140.887 145.955 137.881 143.073 134.152C140.178 130.407 139.129 125.824 138.966 121.246C138.887 119.015 139.228 117.058 140.045 115.367C140.858 113.686 142.17 112.206 144.134 110.957C148.113 108.428 154.755 106.855 165.135 106.642Z" fill="#2F2D2D" fill-opacity="0.03" stroke="#2B2727" stroke-width="2"/>
<rect x="0.436726" y="0.538428" width="8.86327" height="5.48073" transform="matrix(0.996513 0.0845891 -0.123061 0.992266 131.387 112.996)" fill="#2B2727" stroke="#2B2727"/>
<path d="M108.361 102.183C100.916 101.166 95.3918 100.974 91.3497 101.483C87.3073 101.992 84.8687 103.187 83.4331 104.832C82.0012 106.473 81.418 108.73 81.4688 111.706C81.5197 114.69 82.2053 118.257 83.1682 122.384C84.9487 130.015 92.7455 138.805 108.707 138.083C116.725 137.721 121.99 135.291 125.485 131.927C128.994 128.55 130.819 124.135 131.765 119.625C132.226 117.427 132.224 115.454 131.707 113.691C131.193 111.937 130.15 110.324 128.419 108.862C124.913 105.901 118.604 103.582 108.361 102.183Z" fill="#504848" fill-opacity="0.03" stroke="#2B2727" stroke-width="2"/>
<path d="M188.263 113.535L190.935 113.48C192.836 113.441 194.411 114.951 194.452 116.853C194.493 118.754 192.984 120.328 191.082 120.367L188.411 120.421L188.263 113.535Z" fill="#2B2727"/>
<path d="M83.4204 106.173L80.7694 105.995C78.8676 105.868 77.1734 107.302 76.9853 109.198C76.7971 111.095 78.1862 112.735 80.0879 112.862L82.739 113.04L83.4204 106.173Z" fill="#2B2727"/>
</g>
<defs>
<filter id="filter0_d_1157_58" x="0" y="0" width="288.282" height="282.56" filterUnits="userSpaceOnUse" color-interpolation-filters="sRGB">
<feFlood flood-opacity="0" result="BackgroundImageFix"/>
<feColorMatrix in="SourceAlpha" type="matrix" values="0 0 0 0 0 0 0 0 0 0 0 0 0 0 0 0 0 0 127 0" result="hardAlpha"/>
<feOffset dy="4"/>
<feGaussianBlur stdDeviation="6.5"/>
<feComposite in2="hardAlpha" operator="out"/>
<feColorMatrix type="matrix" values="0 0 0 0 0 0 0 0 0 0 0 0 0 0 0 0 0 0 0.25 0"/>
<feBlend mode="normal" in2="BackgroundImageFix" result="effect1_dropShadow_1157_58"/>
<feBlend mode="normal" in="SourceGraphic" in2="effect1_dropShadow_1157_58" result="shape"/>
</filter>
<filter id="filter1_d_1157_58" x="12" y="5" width="270.282" height="264.56" filterUnits="userSpaceOnUse" color-interpolation-filters="sRGB">
<feFlood flood-opacity="0" result="BackgroundImageFix"/>
<feColorMatrix in="SourceAlpha" type="matrix" values="0 0 0 0 0 0 0 0 0 0 0 0 0 0 0 0 0 0 127 0" result="hardAlpha"/>
<feOffset dx="3"/>
<feGaussianBlur stdDeviation="2"/>
<feComposite in2="hardAlpha" operator="out"/>
<feColorMatrix type="matrix" values="0 0 0 0 0 0 0 0 0 0 0 0 0 0 0 0 0 0 0.25 0"/>
<feBlend mode="normal" in2="BackgroundImageFix" result="effect1_dropShadow_1157_58"/>
<feBlend mode="normal" in="SourceGraphic" in2="effect1_dropShadow_1157_58" result="shape"/>
</filter>
</defs>
</svg>
