<svg width="166" height="161" viewBox="0 0 166 161" fill="none" xmlns="http://www.w3.org/2000/svg">
<ellipse cx="82.1897" cy="75.0456" rx="76.9744" ry="73.8791" fill="#181833"/>
<path d="M92.869 12.6487C107.608 18.3457 117.866 22.0575 128.722 74.7461C139.578 127.435 138.877 127.941 68.3805 122.537C11.8427 118.204 22.9846 133.269 28.8695 62.5369C35.2844 22.0706 65.4084 2.03434 92.869 12.6487Z" fill="#523B36"/>
<path d="M75.271 84.391L94.0588 90.8626L113.733 97.9656L124.846 101.671L134.019 104.437L145.841 108.443L140.949 117.536L135.445 123.921L129.33 129.725L124.846 133.788L118.935 138.238L110.986 141.72L104.339 144.687L94.0588 147.371L83.2647 148.685L71.6463 148.685L63.2183 146.266L54.7106 143.425L46.5574 140.11L39.8221 135.391L35.3644 131.466L30.6763 127.21L24.969 121.212L21.0962 114.827L28.6557 111.067L39.8221 104.437L53.1154 97.1764L75.271 84.391Z" fill="#121212"/>
<path d="M74.9221 96.51C87.6341 96.51 102.509 75.347 99.4622 107.093C99.4621 128.256 89.1573 138.216 76.4456 138.216C63.7336 138.216 52.7511 131.369 53.9358 112.695C55.1205 94.0206 43.2736 85.9283 74.9221 96.51Z" fill="#D7BFA8"/>
<path d="M74.9221 96.51C87.6341 96.51 102.509 75.347 99.4622 107.093C99.4621 128.256 89.1573 138.216 76.4456 138.216C63.7336 138.216 52.7511 131.369 53.9358 112.695C55.1205 94.0206 43.2736 85.9283 74.9221 96.51Z" stroke="black"/>
<path d="M83.7009 25.3945C83.8132 25.3731 84.0291 25.372 84.3757 25.4443C85.118 25.5994 86.2234 26.0319 87.5798 26.7598C90.2815 28.2094 93.8755 30.776 97.3816 34.4062C104.391 41.6637 111.01 53.1268 109.519 68.3662C108.017 83.7247 103.876 93.624 98.0603 100.273C92.2671 106.897 84.7611 110.353 76.3728 112.732C68.1627 111.679 60.6836 107.978 54.991 100.896C49.2687 93.7767 45.3208 83.2034 44.2976 68.3799C43.9432 63.2442 46.1243 59.4403 49.6697 56.2412C53.2386 53.0209 58.1472 50.4513 63.1814 47.8027C68.1859 45.1698 73.3093 42.4612 77.1736 38.9756C81.0401 35.4879 83.6778 31.1933 83.7009 25.3945Z" fill="#D7BFA8" stroke="#523B36"/>
<path d="M94.4254 61.3677C96.4332 61.6662 98.0286 62.488 99.0678 63.4559C100.031 64.3534 100.459 65.315 100.416 66.0735C99.5666 66.5878 98.7098 66.9892 97.6265 67.2087C96.4475 67.4475 94.9685 67.4795 92.9072 67.173C88.8609 66.5714 86.7855 64.8652 85.3949 64.0069C85.5571 63.8647 85.7736 63.7027 86.0396 63.5285C86.6264 63.1444 87.4233 62.7234 88.3416 62.3505C90.1895 61.6001 92.4522 61.0743 94.4254 61.3677Z" fill="#D9D9D9" fill-opacity="0.73" stroke="#3F3634"/>
<path d="M93.3308 61.5908C95.2579 61.5908 96.6793 62.9078 96.6794 64.3721C96.6794 65.8449 95.2482 67.2012 93.3308 67.2012C91.4135 67.2011 89.9822 65.8449 89.9822 64.3721C89.9823 62.9078 91.4038 61.5909 93.3308 61.5908Z" fill="#523B36" stroke="#2B2220"/>
<ellipse cx="93.5331" cy="64.5903" rx="1.62051" ry="1.55535" fill="black"/>
<rect x="93.9385" y="63.4238" width="1.62051" height="1.55535" fill="#D9D9D9" fill-opacity="0.67"/>
<path d="M61.1513 63.8198C59.2023 63.53 58.2572 63.1549 57.5183 62.7025C57.1373 62.4691 56.8033 62.2116 56.3944 61.9029C56.1147 61.6918 55.8066 61.4647 55.442 61.2207C56.8958 59.8866 59.3817 58.1444 62.7555 58.1279C64.8737 58.1175 66.2953 58.8295 67.4602 59.7883C68.0506 60.2743 68.5761 60.8249 69.0997 61.3916C69.4291 61.7482 69.7622 62.1141 70.1045 62.4664C67.3629 63.3563 64.648 64.3396 61.1513 63.8198Z" fill="#D9D9D9" fill-opacity="0.73" stroke="#3F3634"/>
<path d="M62.946 58.0911C64.8731 58.0911 66.2945 59.408 66.2947 60.8723C66.2947 62.3452 64.8634 63.7014 62.946 63.7014C61.0287 63.7014 59.5974 62.3451 59.5974 60.8723C59.5976 59.4081 61.019 58.0911 62.946 58.0911Z" fill="#523B36" stroke="#2B2220"/>
<ellipse cx="63.1488" cy="61.0908" rx="1.62051" ry="1.55535" fill="black"/>
<rect x="63.9587" y="59.5354" width="1.62051" height="1.55535" fill="#D9D9D9" fill-opacity="0.67"/>
<path d="M55.0461 59.4186L56.8186 58.1558L58.591 57.3666L60.5407 56.7353L62.6677 56.5775L64.7946 56.7353L66.7443 57.2088L68.5167 58.1558L69.9347 59.4187" stroke="#3F3634"/>
<path d="M87.0486 61.3734L88.7194 60.4775L90.2809 59.91L92.3834 59.4683L94.7035 59.6463L96.6902 60.1605L98.7075 61.1473L100.204 62.3233L101.425 63.9957" stroke="#3F3634"/>
<path d="M89.0916 54.0054C90.8304 53.751 93.392 53.7478 96.6238 54.0093C99.7416 54.2615 102.101 55.6025 103.682 57.0083C104.474 57.7119 105.066 58.4282 105.456 59.0229C105.543 59.1561 105.618 59.2827 105.684 59.3999C105.502 59.282 105.296 59.1463 105.064 58.9937C104.705 58.757 104.293 58.4878 103.838 58.2095C102.026 57.1026 99.4683 55.811 96.6638 55.811C95.7415 55.8111 94.6152 55.9473 93.4792 56.0913C92.3284 56.2373 91.1577 56.3932 90.0994 56.4468C89.0281 56.5009 88.1474 56.4447 87.5515 56.2144C87.263 56.1028 87.0682 55.9603 86.9441 55.7944C86.8233 55.6329 86.741 55.4114 86.741 55.0864C86.741 54.9453 86.8147 54.7543 87.2009 54.5386C87.5929 54.3197 88.2173 54.1333 89.0916 54.0054Z" fill="#453333" fill-opacity="0.99" stroke="#453333"/>
<path d="M60.8396 49.9255C63.5591 49.9284 66.6804 50.321 68.9509 51.0828C70.0976 51.4675 70.971 51.9282 71.4783 52.4343C71.7268 52.6824 71.8708 52.9256 71.9314 53.1599C71.9904 53.3881 71.9803 53.6445 71.8591 53.9451C71.7215 54.2861 71.5582 54.4774 71.3953 54.5876C71.2327 54.6975 71.0246 54.7585 70.7429 54.7585C70.1458 54.7585 69.3544 54.4926 68.3298 54.0779C66.3542 53.2783 63.694 51.9949 60.8093 51.9949C57.9439 51.9949 55.4142 52.9301 53.6384 53.6677C52.8263 54.0051 52.2121 54.2782 51.7654 54.4324C52.2469 53.7681 53.1299 52.9199 54.3982 52.1257C56.0092 51.1171 58.1942 50.2264 60.8396 49.9255Z" fill="#453333" stroke="#453333"/>
<path d="M72.7449 78.8669L72.2132 78.0777L71.5042 77.4463L70.6183 77.2884L70.0866 77.4462L69.7321 77.762L69.9092 78.2356L70.441 78.5512L70.9728 78.7091L71.6817 78.8669L72.7449 78.8669ZM72.7449 78.8669L73.4542 79.3404L74.1631 79.6561L74.8719 79.9718L75.5811 80.1297L76.4671 80.2875L77.3535 80.2875L78.0623 80.2875L78.9487 80.1297L80.0122 79.814L81.0757 79.3404M81.0757 79.3404L81.7847 79.0247L82.4936 78.7091L82.8482 78.709L83.2026 78.8669L83.2026 79.1826L82.6709 79.4983L82.1391 79.6561L81.6074 79.6561L81.0757 79.3404Z" stroke="#453333"/>
<path d="M71.1591 89.1651C72.5166 89.135 73.7224 89.3234 74.6109 89.805L74.861 89.9408L75.1062 89.7944C75.7509 89.4077 76.7637 89.3356 78.0248 89.5429C79.2642 89.7468 80.6466 90.2033 81.9476 90.7531C83.2466 91.302 84.4446 91.9356 85.3107 92.4779C85.6185 92.6706 85.8785 92.8487 86.0841 93.004C85.9692 93.0012 85.8407 92.9972 85.6985 92.9885C84.8786 92.9383 83.7312 92.7962 82.4188 92.633C79.8416 92.3124 76.6402 91.9099 74.3265 92.0282C71.2994 91.6152 68.1929 91.559 65.8679 91.503C64.6895 91.4746 63.7287 91.4467 63.0636 91.3759C62.9675 91.3657 62.8804 91.3538 62.8023 91.3425C63.0083 91.2224 63.2742 91.0869 63.5938 90.9429C64.4646 90.5506 65.6778 90.1197 67.0178 89.7796C68.3585 89.4393 69.8098 89.195 71.1591 89.1651Z" fill="#EDB0AC" stroke="#A96976"/>
<path d="M62.9558 92.4571C63.4994 92.4154 64.3188 92.4697 65.4038 92.5742C67.5438 92.7804 70.5991 93.1689 74.1132 93.25C75.8589 93.2904 78.36 93.5368 80.8051 93.7845C82.7867 93.9853 84.7379 94.1852 86.1803 94.271C86.0758 94.3591 85.9517 94.4546 85.8059 94.5535C85.2154 94.9541 84.3394 95.3909 83.2321 95.7913C81.0204 96.591 77.946 97.2224 74.5207 97.1433C71.1215 97.0647 68.2286 96.0685 66.107 94.9592C65.0465 94.4048 64.1837 93.8237 63.5506 93.3207C63.1377 92.9927 62.8409 92.7087 62.649 92.4979C62.7263 92.4817 62.8269 92.467 62.9558 92.4571Z" fill="#EDB0AC" stroke="#A96976"/>
<g filter="url(#filter0_d_1157_58)">
<path d="M83 5C124.064 5 157 36.9001 157 75.8232C157 114.746 124.064 146.646 83 146.646C41.9355 146.646 9 114.746 9 75.8232C9.00005 36.9001 41.9356 5 83 5Z" stroke="black" stroke-width="10" shape-rendering="crispEdges"/>
</g>
<path d="M95.624 58.116C100.155 58.0248 103.43 58.286 105.74 58.8455C108.049 59.4053 109.275 60.2338 109.89 61.1835C110.502 62.128 110.627 63.3753 110.299 65.0635C109.968 66.7601 109.206 68.7654 108.206 71.1146C106.437 75.2659 101.082 79.7862 91.8153 78.3124C87.1461 77.5698 84.3501 75.8298 82.6821 73.7121C81.0026 71.5797 80.3828 68.9579 80.2867 66.3015C80.2408 65.031 80.4399 63.9462 80.8932 63.0255C81.3418 62.1145 82.0703 61.2995 83.1913 60.6002C85.484 59.1702 89.3879 58.2415 95.624 58.116Z" fill="#2F2D2D" fill-opacity="0.03" stroke="#2B2727" stroke-width="2"/>
<rect x="0.435679" y="0.537437" width="4.94042" height="2.83219" transform="matrix(0.996725 0.0830161 -0.125368 0.991858 75.3449 61.4575)" fill="#2B2727" stroke="#2B2727"/>
<path d="M61.4006 55.4833C56.9294 54.8839 53.6391 54.7753 51.2518 55.0703C48.8625 55.3656 47.5007 56.05 46.7248 56.9222C45.9558 57.7867 45.6145 59.0024 45.6442 60.7061C45.6741 62.4201 46.0759 64.4889 46.6557 66.9271C47.6769 71.222 52.1834 76.3084 61.6319 75.8892C66.39 75.6781 69.4663 74.2677 71.4897 72.3572C73.5256 70.4347 74.5971 67.9102 75.1564 65.2943C75.4236 64.0441 75.4153 62.9521 75.1289 61.9944C74.8456 61.0471 74.2695 60.1606 73.2819 59.3423C71.2608 57.6677 67.5551 56.3083 61.4006 55.4833Z" fill="#504848" fill-opacity="0.03" stroke="#2B2727" stroke-width="2"/>
<path d="M109.579 61.7883L111.228 61.7551C112.352 61.7325 113.283 62.6254 113.308 63.7493C113.332 64.8733 112.441 65.8028 111.317 65.8255L109.668 65.8586L109.579 61.7883Z" fill="#2B2727"/>
<path d="M46.4216 57.4365L44.7865 57.3292C43.6619 57.2554 42.6584 58.1042 42.5451 59.225C42.4317 60.3459 43.2515 61.3144 44.376 61.3882L46.0111 61.4955L46.4216 57.4365Z" fill="#2B2727"/>
<defs>
<filter id="filter0_d_1157_58" x="0" y="0" width="166" height="159.647" filterUnits="userSpaceOnUse" color-interpolation-filters="sRGB">
<feFlood flood-opacity="0" result="BackgroundImageFix"/>
<feColorMatrix in="SourceAlpha" type="matrix" values="0 0 0 0 0 0 0 0 0 0 0 0 0 0 0 0 0 0 127 0" result="hardAlpha"/>
<feOffset dy="4"/>
<feGaussianBlur stdDeviation="2"/>
<feComposite in2="hardAlpha" operator="out"/>
<feColorMatrix type="matrix" values="0 0 0 0 0 0 0 0 0 0 0 0 0 0 0 0 0 0 0.25 0"/>
<feBlend mode="normal" in2="BackgroundImageFix" result="effect1_dropShadow_1157_58"/>
<feBlend mode="normal" in="SourceGraphic" in2="effect1_dropShadow_1157_58" result="shape"/>
</filter>
</defs>
</svg>
