<svg width="398" height="412" viewBox="0 0 398 412" fill="none" xmlns="http://www.w3.org/2000/svg">
<circle cx="197" cy="193" r="190" fill="white"/>
<path d="M223.36 32.5293C259.741 47.1807 285.062 56.7266 311.858 192.229C338.655 327.732 336.924 329.033 162.914 315.138C23.3586 303.994 50.8607 342.736 65.3868 160.83C81.221 56.7604 155.578 5.23176 223.36 32.5293Z" fill="#523B36"/>
<path d="M179.922 217.034L226.298 233.677L274.86 251.945L302.292 261.475L324.932 268.588L354.114 278.89L342.039 302.275L328.454 318.695L313.361 333.622L302.292 344.071L287.701 355.515L268.079 364.471L251.673 372.102L226.298 379.003L199.654 382.383L170.976 382.383L150.172 376.161L129.172 368.855L109.047 360.33L92.4221 348.195L81.419 338.1L69.847 327.154L55.7594 311.729L46.2 295.309L64.8595 285.637L92.4221 268.588L125.235 249.915L179.922 217.034Z" fill="#121212"/>
<path d="M179.061 248.203C210.439 248.203 247.154 193.775 239.634 275.418C239.634 329.846 214.198 355.459 182.82 355.459C151.442 355.459 124.335 337.85 127.259 289.825C130.184 241.8 100.941 220.989 179.061 248.203Z" fill="#D7BFA8"/>
<path d="M179.061 248.203C210.439 248.203 247.154 193.775 239.634 275.418C239.634 329.846 214.198 355.459 182.82 355.459C151.442 355.459 124.335 337.85 127.259 289.825C130.184 241.8 100.941 220.989 179.061 248.203Z" stroke="black"/>
<path d="M200.464 64.5637C200.88 64.4442 201.568 64.455 202.543 64.6672C204.472 65.0873 207.269 66.2364 210.644 68.1233C217.382 71.8904 226.313 78.539 235.018 87.9299C252.425 106.708 268.895 136.408 265.188 175.9C261.471 215.505 251.211 241.14 236.719 258.404C222.253 275.637 203.519 284.584 182.694 290.722C162.208 288.017 143.514 278.408 129.297 259.98C115.048 241.51 105.268 214.146 102.735 175.913C101.839 162.392 107.375 152.387 116.244 144.049C125.136 135.689 137.344 129.036 149.746 122.239C162.118 115.457 174.676 108.533 184.134 99.6448C193.61 90.7387 200 79.8359 200 65.1106C200 64.9396 200.045 64.839 200.099 64.7717C200.158 64.7001 200.265 64.621 200.464 64.5637Z" fill="#D7BFA8" stroke="#523B36"/>
<path d="M227.34 157.051C232.427 157.839 236.498 160.012 239.174 162.609C241.785 165.143 243.011 168.016 242.689 170.374C240.433 171.831 238.151 172.99 235.219 173.609C232.199 174.247 228.458 174.321 223.316 173.525C212.37 171.829 206.99 166.68 203.72 164.803C203.857 164.619 204.05 164.402 204.308 164.156C204.76 163.726 205.372 163.242 206.12 162.731C207.617 161.711 209.63 160.604 211.937 159.628C216.562 157.671 222.289 156.269 227.34 157.051Z" fill="#D9D9D9" fill-opacity="0.73" stroke="#3F3634"/>
<path d="M224.5 157.611C229.528 157.611 233.5 161.22 233.5 165.551C233.5 169.89 229.518 173.611 224.5 173.611C219.482 173.611 215.5 169.89 215.5 165.551C215.5 161.22 219.472 157.611 224.5 157.611Z" fill="#523B36" stroke="#2B2220"/>
<circle cx="225" cy="166.111" r="4" fill="black"/>
<rect x="226" y="163.111" width="4" height="4" fill="#D9D9D9" fill-opacity="0.67"/>
<path d="M144.931 164.902C140.06 164.147 137.628 163.16 135.7 161.93C134.723 161.307 133.868 160.617 132.869 159.832C131.992 159.142 131.016 158.389 129.782 157.575C133.307 154.025 139.885 148.76 149.059 148.713C154.483 148.686 158.145 150.594 161.123 153.148C162.62 154.431 163.944 155.879 165.239 157.339C166.341 158.581 167.427 159.839 168.565 160.989C161.436 163.35 154.27 166.349 144.931 164.902Z" fill="#D9D9D9" fill-opacity="0.73" stroke="#3F3634"/>
<path d="M149.5 148.611C154.528 148.611 158.5 152.22 158.5 156.551C158.5 160.89 154.518 164.611 149.5 164.611C144.482 164.611 140.5 160.89 140.5 156.551C140.5 152.22 144.472 148.611 149.5 148.611Z" fill="#523B36" stroke="#2B2220"/>
<circle cx="150" cy="157.111" r="4" fill="black"/>
<rect x="152" y="153.111" width="4" height="4" fill="#D9D9D9" fill-opacity="0.67"/>
<path d="M130 152.81L134.375 149.563L138.75 147.533L143.562 145.909L148.813 145.504L154.062 145.909L158.875 147.127L163.25 149.563L166.75 152.811" stroke="#3F3634"/>
<path d="M208.994 157.838L213.118 155.534L216.972 154.075L222.162 152.939L227.889 153.397L232.793 154.719L237.772 157.257L241.467 160.281L244.48 164.582" stroke="#3F3634"/>
<path d="M213.933 138.112C218.304 137.446 224.691 137.442 232.687 138.116C240.563 138.78 246.53 142.312 250.531 146.018C252.532 147.872 254.037 149.764 255.037 151.353C255.537 152.148 255.908 152.861 256.152 153.45C256.352 153.931 256.453 154.302 256.486 154.554C256.236 154.459 255.855 154.249 255.324 153.909C254.709 153.514 253.956 152.99 253.067 152.38C252.183 151.772 251.173 151.085 250.059 150.376C245.615 147.547 239.446 144.32 232.729 144.32C230.505 144.32 227.77 144.663 224.956 145.035C222.126 145.409 219.206 145.813 216.561 145.953C213.902 146.093 211.599 145.959 209.978 145.306C209.177 144.984 208.566 144.544 208.153 143.969C207.743 143.396 207.5 142.652 207.5 141.669C207.5 140.898 207.947 140.193 209.019 139.569C210.099 138.94 211.742 138.446 213.933 138.112Z" fill="#453333" fill-opacity="0.99" stroke="#453333"/>
<path d="M144.257 127.611C151.031 127.614 158.837 128.63 164.549 130.627C167.416 131.629 169.7 132.86 171.072 134.287C171.753 134.995 172.197 135.738 172.39 136.513C172.581 137.284 172.533 138.12 172.178 139.036C171.795 140.023 171.31 140.655 170.758 141.045C170.208 141.432 169.545 141.611 168.746 141.611C167.111 141.611 165.03 140.867 162.52 139.808C157.576 137.724 151.171 134.506 144.226 134.506C137.3 134.506 131.165 136.861 126.801 138.75C124.592 139.706 122.891 140.517 121.718 140.885C121.115 141.075 120.77 141.105 120.604 141.063C120.547 141.049 120.542 141.033 120.541 141.031C120.534 141.02 120.514 140.983 120.505 140.898C121.424 138.917 123.995 136.011 128.019 133.385C132.089 130.73 137.597 128.394 144.257 127.611Z" fill="#453333" stroke="#453333"/>
<path d="M173.687 202.827L172.375 200.797L170.625 199.174L168.438 198.767L167.125 199.173L166.25 199.986L166.688 201.203L168 202.015L169.313 202.421L171.063 202.827L173.687 202.827ZM173.687 202.827L175.438 204.045L177.188 204.857L178.937 205.669L180.688 206.075L182.875 206.48L185.063 206.481L186.812 206.48L189 206.075L191.625 205.263L194.25 204.045M194.25 204.045L196 203.233L197.75 202.421L198.626 202.421L199.5 202.827L199.5 203.639L198.188 204.451L196.875 204.857L195.563 204.857L194.25 204.045Z" stroke="#453333"/>
<path d="M169.757 228.525C173.165 228.446 176.284 228.935 178.635 230.262L178.894 230.408L179.146 230.25C180.965 229.114 183.679 228.967 186.836 229.507C189.971 230.045 193.441 231.243 196.683 232.67C199.922 234.096 202.913 235.742 205.085 237.159C206.173 237.869 207.046 238.514 207.639 239.04C207.937 239.303 208.151 239.526 208.287 239.702C208.329 239.757 208.358 239.801 208.379 239.835C208.293 239.867 208.16 239.901 207.964 239.928C207.439 239.998 206.645 239.995 205.615 239.929C203.563 239.798 200.706 239.43 197.475 239.012C191.064 238.181 183.197 237.15 177.559 237.462C170.113 236.398 162.458 236.255 156.693 236.111C153.793 236.038 151.389 235.965 149.712 235.779C148.868 235.685 148.247 235.567 147.85 235.422C147.659 235.352 147.553 235.287 147.502 235.243C147.519 235.215 147.55 235.17 147.607 235.107C147.737 234.964 147.947 234.787 148.244 234.579C148.835 234.166 149.708 233.681 150.806 233.165C152.998 232.136 156.032 231.014 159.376 230.13C162.721 229.245 166.357 228.604 169.757 228.525Z" fill="#EDB0AC" stroke="#A96976"/>
<path d="M149.472 236.993C150.886 236.88 152.967 237.028 155.636 237.296C160.942 237.829 168.441 238.824 177.082 239.032C181.425 239.136 187.63 239.774 193.657 240.41C199.32 241.008 204.834 241.604 208.431 241.743C208.346 241.911 208.221 242.103 208.043 242.317C207.664 242.774 207.092 243.285 206.33 243.824C204.807 244.9 202.585 246.052 199.814 247.096C194.275 249.182 186.599 250.82 178.052 250.614C169.531 250.409 162.284 247.809 156.968 244.913C154.31 243.466 152.14 241.946 150.54 240.622C149.033 239.375 148.069 238.326 147.659 237.692C147.694 237.555 147.788 237.44 147.986 237.331C148.279 237.17 148.761 237.05 149.472 236.993Z" fill="#EDB0AC" stroke="#A96976"/>
<g filter="url(#filter0_d_1157_58)">
<path d="M199 10C301.173 10 384 92.8273 384 195C384 297.173 301.173 380 199 380C96.8273 380 14 297.173 14 195C14 92.8273 96.8273 10 199 10Z" stroke="black" stroke-width="20" shape-rendering="crispEdges"/>
</g>
<path d="M230.213 148.904C241.412 148.669 249.534 149.341 255.283 150.792C261.026 152.242 264.17 154.409 265.775 156.991C267.382 159.577 267.679 162.954 266.852 167.381C266.023 171.818 264.12 177.031 261.649 183.074C257.154 194.065 243.663 205.768 220.635 201.952C209.04 200.03 202.036 195.518 197.837 189.964C193.61 184.371 192.061 177.506 191.822 170.597C191.706 167.257 192.207 164.357 193.383 161.869C194.55 159.401 196.434 157.223 199.279 155.374C205.063 151.615 214.807 149.227 230.213 148.904Z" fill="#2F2D2D" fill-opacity="0.03" stroke="#2B2727" stroke-width="4"/>
<rect x="0.437912" y="0.539588" width="13.67" height="8.84693" transform="matrix(0.996256 0.0864534 -0.120431 0.992722 180.001 158.102)" fill="#2B2727" stroke="#2B2727"/>
<path d="M145.722 142.123C134.673 140.58 126.514 140.295 120.574 141.06C114.637 141.824 111.155 143.605 109.132 145.974C107.109 148.343 106.249 151.645 106.324 156.118C106.399 160.603 107.406 165.985 108.838 172.257C111.436 183.643 122.821 196.825 146.286 195.741C158.099 195.195 165.797 191.543 170.889 186.534C176.013 181.492 178.697 174.879 180.094 168.072C180.769 164.782 180.76 161.859 180.016 159.265C179.277 156.692 177.78 154.317 175.274 152.154C170.177 147.754 160.925 144.247 145.722 142.123Z" fill="#504848" fill-opacity="0.03" stroke="#2B2727" stroke-width="4"/>
<path d="M264.607 158.906L268.466 158.825C271.356 158.764 273.749 161.058 273.81 163.949C273.87 166.839 271.576 169.232 268.685 169.292L264.826 169.373L264.607 158.906Z" fill="#2B2727"/>
<path d="M108.712 147.713L104.881 147.451C101.992 147.254 99.423 149.43 99.1432 152.313C98.8634 155.196 100.979 157.693 103.868 157.89L107.699 158.152L108.712 147.713Z" fill="#2B2727"/>
<defs>
<filter id="filter0_d_1157_58" x="0" y="0" width="398" height="398" filterUnits="userSpaceOnUse" color-interpolation-filters="sRGB">
<feFlood flood-opacity="0" result="BackgroundImageFix"/>
<feColorMatrix in="SourceAlpha" type="matrix" values="0 0 0 0 0 0 0 0 0 0 0 0 0 0 0 0 0 0 127 0" result="hardAlpha"/>
<feOffset dy="4"/>
<feGaussianBlur stdDeviation="2"/>
<feComposite in2="hardAlpha" operator="out"/>
<feColorMatrix type="matrix" values="0 0 0 0 0 0 0 0 0 0 0 0 0 0 0 0 0 0 0.25 0"/>
<feBlend mode="normal" in2="BackgroundImageFix" result="effect1_dropShadow_1157_58"/>
<feBlend mode="normal" in="SourceGraphic" in2="effect1_dropShadow_1157_58" result="shape"/>
</filter>
</defs>
</svg>
