<svg width="250" height="329" viewBox="0 0 250 329" fill="none" xmlns="http://www.w3.org/2000/svg">
<g filter="url(#filter0_d_1186_181)">
<path d="M137.211 34.9241C144.878 37.5091 150.217 39.189 155.363 63.9065C160.509 88.624 160.136 88.8665 123.238 86.7801C93.6458 85.1068 99.3306 92.122 103.147 58.8078C106.928 39.7288 122.926 30.108 137.211 34.9241Z" fill="#523B36"/>
<path d="M131.495 40.76C131.495 39.2896 147.452 46.2101 145.838 59.9358C144.225 73.662 136.925 77.7531 127.861 79.8821C118.91 78.947 111.514 73.1878 110.415 59.9358C109.628 50.4501 131.495 50.8327 131.495 40.76Z" fill="#D7BFA8"/>
<path d="M131.495 40.76C131.495 39.2896 147.452 46.2101 145.838 59.9358C144.225 73.662 136.925 77.7531 127.861 79.8821C118.91 78.947 111.514 73.1878 110.415 59.9358C109.628 50.4501 131.495 50.8327 131.495 40.76Z" stroke="#523B36"/>
<path d="M137.493 56.8259C138.578 56.9602 139.44 57.3296 140 57.7636C140.508 58.1572 140.723 58.5646 140.718 58.8728C140.269 59.0975 139.813 59.2764 139.235 59.3738C138.597 59.4813 137.799 59.4949 136.692 59.358C134.556 59.0938 133.431 58.3492 132.693 57.9635C132.77 57.911 132.865 57.8524 132.978 57.7912C133.292 57.6199 133.72 57.4319 134.213 57.2653C135.203 56.931 136.423 56.6936 137.493 56.8259Z" fill="#D9D9D9" fill-opacity="0.73" stroke="#3F3634" stroke-width="0.5"/>
<path d="M136.912 56.9275C137.435 56.9275 137.898 57.0784 138.224 57.3093C138.55 57.5406 138.722 57.8368 138.722 58.1375C138.722 58.4391 138.549 58.7417 138.222 58.9783C137.896 59.214 137.433 59.3689 136.912 59.3689C136.391 59.3688 135.929 59.2138 135.604 58.9783C135.276 58.7417 135.104 58.4391 135.104 58.1375C135.104 57.8368 135.275 57.5406 135.602 57.3093C135.927 57.0785 136.389 56.9275 136.912 56.9275Z" fill="#523B36" stroke="#2B2220" stroke-width="0.5"/>
<ellipse cx="137.021" cy="58.2345" rx="0.866897" ry="0.692061" fill="black"/>
<rect x="137.237" y="57.7156" width="0.866897" height="0.692061" fill="#D9D9D9" fill-opacity="0.67"/>
<path d="M119.703 57.8665C118.655 57.7369 118.142 57.569 117.74 57.3643C117.535 57.2595 117.355 57.1435 117.137 57.0066C116.996 56.9181 116.84 56.8256 116.66 56.7244C117.441 56.1388 118.759 55.3913 120.542 55.3841C122.603 55.3757 123.43 56.3986 124.454 57.2809C123.011 57.6718 121.561 58.0962 119.703 57.8665Z" fill="#D9D9D9" fill-opacity="0.73" stroke="#3F3634" stroke-width="0.5"/>
<path d="M120.658 55.3704C121.181 55.3704 121.644 55.5213 121.969 55.7522C122.295 55.9835 122.467 56.2797 122.467 56.5803C122.467 56.882 122.294 57.1846 121.967 57.4211C121.641 57.6568 121.179 57.8118 120.658 57.8118C120.137 57.8117 119.675 57.6567 119.349 57.4211C119.022 57.1846 118.849 56.882 118.849 56.5803C118.849 56.2797 119.021 55.9835 119.347 55.7522C119.673 55.5214 120.135 55.3704 120.658 55.3704Z" fill="#523B36" stroke="#2B2220" stroke-width="0.5"/>
<ellipse cx="120.766" cy="56.6774" rx="0.866897" ry="0.692061" fill="black"/>
<rect x="121.2" y="55.9854" width="0.866897" height="0.692061" fill="#D9D9D9" fill-opacity="0.67"/>
<path d="M134.667 53.8013C135.58 53.6902 136.937 53.6881 138.662 53.8042C139.989 53.8935 141.046 54.2977 141.832 54.7681C140.948 54.3882 139.863 54.0513 138.696 54.0513C138.191 54.0513 137.579 54.1124 136.973 54.1763C136.355 54.2415 135.735 54.31 135.176 54.3335C134.605 54.3575 134.162 54.3312 133.877 54.2397C133.74 54.1957 133.678 54.1478 133.653 54.1196C133.643 54.1088 133.634 54.0942 133.627 54.0679C133.646 54.0559 133.674 54.0395 133.713 54.021C133.894 53.9372 134.205 53.8575 134.667 53.8013Z" fill="#453333" fill-opacity="0.99" stroke="#453333"/>
<path d="M119.541 51.9871C120.983 51.9891 122.631 52.1627 123.821 52.4949C124.43 52.6647 124.86 52.8611 125.092 53.0535C125.203 53.1455 125.237 53.2108 125.246 53.241C125.251 53.2576 125.259 53.2897 125.224 53.363C125.173 53.4667 125.123 53.51 125.082 53.533C125.036 53.5587 124.96 53.5828 124.829 53.5828C124.544 53.5828 124.148 53.4751 123.598 53.2898C122.555 52.9386 121.095 52.3533 119.515 52.3533C118.282 52.3533 117.166 52.617 116.28 52.8904C117.106 52.477 118.21 52.1139 119.541 51.9871Z" fill="#453333" stroke="#453333"/>
<path d="M125.9 64.5871L125.615 64.236L125.236 63.955L124.762 63.8848L124.478 63.955L124.288 64.0955L124.383 64.3062L124.667 64.4467L124.952 64.5169L125.331 64.5871L125.9 64.5871ZM125.9 64.5871L126.279 64.7979L126.658 64.9383L127.038 65.0788L127.417 65.149L127.891 65.2192L128.365 65.2193L128.744 65.2192L129.219 65.149L129.787 65.0086L130.356 64.7979M130.356 64.7979L130.736 64.6574L131.115 64.5169L131.305 64.5169L131.494 64.5871L131.494 64.7276L131.21 64.8681L130.925 64.9383L130.641 64.9383L130.356 64.7979Z" stroke="#453333" stroke-width="0.5"/>
<path d="M125.085 68.9408C125.832 69.0006 126.505 69.1473 126.993 69.4122L127.055 69.4459L127.121 69.418C127.529 69.2506 128.135 69.2208 128.833 69.2869C129.525 69.3525 130.288 69.5108 130.997 69.7044C131.707 69.8981 132.359 70.1256 132.83 70.3263C133.065 70.4268 133.251 70.5187 133.375 70.5947C133.39 70.6039 133.403 70.6152 133.416 70.6236L133.416 70.6245C133.296 70.6492 133.116 70.6675 132.884 70.6788C132.423 70.7012 131.783 70.696 131.064 70.6773C130.345 70.6585 129.552 70.6263 128.787 70.5942C128.025 70.5623 127.29 70.5296 126.685 70.5122C125.092 70.2101 123.417 70.0128 122.151 69.8451C121.514 69.7608 120.984 69.6845 120.616 69.607C120.45 69.572 120.324 69.5361 120.238 69.5036C120.253 69.4962 120.27 69.4857 120.289 69.4776C120.422 69.4221 120.619 69.3607 120.867 69.2989C121.362 69.1756 122.043 69.0553 122.789 68.9816C123.535 68.9078 124.341 68.8812 125.085 68.9408Z" fill="#EDB0AC" stroke="#A96976" stroke-width="0.3"/>
<path d="M133.414 71.0578C133.395 71.0859 133.37 71.1196 133.335 71.1567C133.246 71.2503 133.115 71.359 132.943 71.4752C132.601 71.7073 132.108 71.9647 131.499 72.1955C130.281 72.6571 128.607 73.0092 126.764 72.8475C124.92 72.6856 123.346 72.0909 122.195 71.4741C121.619 71.1657 121.149 70.8524 120.806 70.5856C120.493 70.3434 120.294 70.1437 120.207 70.0263C120.217 70.0177 120.236 70.0066 120.269 69.9965C120.342 69.9746 120.458 69.9668 120.621 69.9744C120.944 69.9895 121.413 70.0648 122.004 70.1693C123.181 70.3773 124.823 70.697 126.689 70.8607C127.636 70.9438 128.982 70.9695 130.274 70.9871C131.491 71.0037 132.66 71.0144 133.414 71.0578Z" fill="#EDB0AC" stroke="#A96976" stroke-width="0.2"/>
<path d="M138.086 55.4134C140.518 55.3783 142.286 55.498 143.538 55.7519C144.797 56.0072 145.473 56.3855 145.81 56.814C146.133 57.2252 146.198 57.7544 146.031 58.4766C145.862 59.2129 145.465 60.0899 144.933 61.1313C144.027 62.9062 141.184 64.9531 136.133 64.2771C133.604 63.9384 132.083 63.1528 131.178 62.2037C130.274 61.2555 129.943 60.1009 129.887 58.9412C129.86 58.3918 129.963 57.9355 130.189 57.5531C130.413 57.1739 130.787 56.8199 131.389 56.509C132.626 55.8717 134.734 55.4619 138.086 55.4134Z" fill="#2F2D2D" fill-opacity="0.03" stroke="#2B2727"/>
<rect x="0.363395" y="0.451523" width="2.32703" height="0.853082" transform="matrix(0.998312 0.0709709 -0.146354 0.987598 127.313 56.8345)" fill="#2B2727" stroke="#2B2727" stroke-width="0.853082"/>
<path d="M119.834 54.2228C117.443 53.9495 115.676 53.8956 114.389 54.0258C113.094 54.1568 112.349 54.4682 111.93 54.8628C111.53 55.2397 111.361 55.7576 111.38 56.489C111.399 57.2363 111.613 58.1464 111.927 59.2355C112.461 61.0828 114.847 63.4046 119.97 63.226C122.535 63.1366 124.194 62.5022 125.279 61.6449C126.361 60.7892 126.919 59.6733 127.207 58.5268C127.343 57.9844 127.334 57.5234 127.189 57.1246C127.046 56.7287 126.75 56.3405 126.218 55.9715C125.127 55.2151 123.129 54.5996 119.834 54.2228Z" fill="#504848" fill-opacity="0.03" stroke="#2B2727"/>
<path d="M145.604 56.9836L146.659 56.9682C147.16 56.9609 147.58 57.3614 147.595 57.8627C147.61 58.364 147.216 58.7764 146.715 58.7837L145.66 58.7991L145.604 56.9836Z" fill="#2B2727"/>
<path d="M111.818 55.0559L110.754 54.9958C110.253 54.9675 109.799 55.3479 109.74 55.8455C109.682 56.3431 110.041 56.7694 110.542 56.7977L111.606 56.8578L111.818 55.0559Z" fill="#2B2727"/>
</g>
<path d="M120.5 78L123 79L124.5 79.5L128 80L133 78.5L136 84.5L116 83.5L120.5 78Z" fill="#3F3D56"/>
<path d="M164.769 295.485H157.072L153.41 270.036H164.769L164.769 295.485Z" fill="#D7BFA8"/>
<path d="M166.731 301.881L141.914 301.88V301.611C141.914 299.415 142.932 297.309 144.743 295.756C146.555 294.203 149.012 293.33 151.574 293.33L166.731 293.331L166.731 301.881Z" fill="#2F2E41"/>
<path d="M89.7538 294.962L82.4565 292.865L88.4212 267.738L99.1912 270.833L89.7538 294.962Z" fill="#D7BFA8"/>
<path d="M89.2435 301.561L65.7139 294.798L65.8137 294.543C66.6281 292.461 68.374 290.741 70.6673 289.763C72.9606 288.784 75.6135 288.626 78.0424 289.324L92.4141 293.455L89.2435 301.561Z" fill="#2F2E41"/>
<path d="M99.2417 163.962L82.5747 284.827L98.9217 286.009C98.9217 286.009 124.635 167.176 132.563 181.253C140.49 195.33 150.203 283.371 150.203 283.371H166.427C166.427 283.371 170.587 146.002 153.6 139.207L99.2417 163.962Z" fill="#2F2E41"/>
<path d="M116.511 81.2009L137.462 82.6571C137.462 82.6571 154.166 82.8998 160.961 86.783C167.755 90.6662 154.449 114.694 154.449 114.694C154.449 114.694 150.99 124.22 153.6 128.528C162.068 142.504 160.813 153.268 160.813 153.268C160.813 153.268 143.407 156.681 113.397 163.477C113.397 163.477 94.7115 169.787 95.2778 166.389C95.844 162.991 101.506 124.159 101.506 124.159V83.8706L116.511 81.2009Z" fill="#3F3D56"/>
<path d="M39.9946 169.81H227.353V258.833H203.555V283.314L177.917 258.833H39.9946V169.81Z" fill="#B671D2"/>
<path d="M196.631 195.96H70.7158V200.782H196.631V195.96Z" fill="white"/>
<path d="M196.631 211.91H70.7158V216.732H196.631V211.91Z" fill="white"/>
<path d="M196.631 227.86H70.7158V232.682H196.631V227.86Z" fill="white"/>
<path d="M163.013 112.768L152.024 115.058L151.941 134.123L139.581 170.694C138.592 171.364 137.836 172.255 137.395 173.268C136.954 174.281 136.845 175.378 137.08 176.44C137.315 177.502 137.885 178.489 138.728 179.293C139.571 180.098 140.655 180.688 141.862 181.002C143.07 181.315 144.354 181.339 145.576 181.071C146.798 180.803 147.911 180.253 148.794 179.481C149.677 178.709 150.296 177.745 150.585 176.692C150.874 175.64 150.821 174.539 150.432 173.511L165.208 135.652L163.013 112.768Z" fill="#D7BFA8"/>
<path d="M89.873 112.367L103.057 115.596L103.14 134.662L115.5 171.232C116.489 171.903 117.245 172.793 117.686 173.806C118.127 174.819 118.236 175.916 118.001 176.979C117.766 178.041 117.196 179.028 116.353 179.832C115.51 180.636 114.426 181.227 113.218 181.54C112.011 181.854 110.727 181.878 109.505 181.609C108.283 181.341 107.17 180.792 106.287 180.02C105.404 179.248 104.784 178.283 104.496 177.23C104.207 176.178 104.26 175.078 104.649 174.049L89.873 136.191V112.367Z" fill="#D7BFA8"/>
<path d="M146.522 84.8414L149.245 84.0801C150.774 83.6527 152.437 83.7516 153.883 84.356C153.883 84.356 161.81 84.8413 162.943 89.6954C164.075 94.5494 166.829 136.976 166.829 136.976L150.038 132.396L146.522 84.8414Z" fill="#3F3D56"/>
<path d="M108.301 84.8414L103.481 84.6335L101.955 83.9792C101.955 83.9792 93.0132 84.8414 91.8807 89.6954C90.7483 94.5494 87.4531 138.285 87.4531 138.285L104.244 134.359L108.301 84.8414Z" fill="#3F3D56"/>
<path d="M31.3336 259.275L39.2926 253.323C38.9522 249.048 38.3308 244.793 37.4314 240.577L33.0391 242.17L37.1141 239.123C35.9415 233.92 34.7807 230.539 34.7807 230.539C34.7807 230.539 18.7222 242.763 9.73609 257.676L13.6781 268.792L7.65699 261.441C6.76163 263.216 5.99733 265.037 5.36863 266.893C-0.897166 285.631 1.16193 302.575 9.96789 304.739C18.7739 306.903 30.9919 293.467 37.2578 274.73C39.0861 268.728 39.8304 262.521 39.4648 256.326L31.3336 259.275Z" fill="#5DA659"/>
<path d="M58.656 271.276L69.0581 269.708C71.3445 265.898 73.3784 261.979 75.1501 257.973L70.4296 257.39L75.7555 256.587C77.8888 251.614 78.9342 248.204 78.9342 248.204C78.9342 248.204 57.8164 251.553 41.1317 260.338L37.8036 271.6L37.0815 262.64C35.2451 263.762 33.4928 264.982 31.8351 266.293C15.1731 279.556 6.71898 294.974 12.9525 300.728C19.186 306.483 37.7463 300.395 54.4084 287.132C59.5926 282.804 63.9723 277.821 67.3949 272.355L58.656 271.276Z" fill="#5DA659"/>
<rect x="2" y="303" width="225" height="7" fill="#5DA659"/>
<defs>
<filter id="filter0_d_1186_181" x="87.0239" y="24.6951" width="83.6899" height="79.8882" filterUnits="userSpaceOnUse" color-interpolation-filters="sRGB">
<feFlood flood-opacity="0" result="BackgroundImageFix"/>
<feColorMatrix in="SourceAlpha" type="matrix" values="0 0 0 0 0 0 0 0 0 0 0 0 0 0 0 0 0 0 127 0" result="hardAlpha"/>
<feOffset dy="4"/>
<feGaussianBlur stdDeviation="6.5"/>
<feComposite in2="hardAlpha" operator="out"/>
<feColorMatrix type="matrix" values="0 0 0 0 0 0 0 0 0 0 0 0 0 0 0 0 0 0 0.25 0"/>
<feBlend mode="normal" in2="BackgroundImageFix" result="effect1_dropShadow_1186_181"/>
<feBlend mode="normal" in="SourceGraphic" in2="effect1_dropShadow_1186_181" result="shape"/>
</filter>
</defs>
</svg>
